# xmcd
#
# Track frame offsets: 
#        150
#        20849
#        43576
#        62418
#        84575
#        111460
#        129339
#        160511
#
# Disc length: 2501 seconds
#
# Revision: 2
# Processed by: cddbd v1.5.2PL0 Copyright (c) Steve Scherf et al.
# Submitted via: ExactAudioCopy v1.1
#
DISCID=6009c308
DTITLE=Aili Ikonen and Tribute to Ella - Tribute to Ella
DYEAR=2013
DGENRE=Jazz
TTITLE0=How High the Moon
TTITLE1=What Is This Thing Called Love?
TTITLE2=Little Jazz
TTITLE3=Love for Sale
TTITLE4=In a Sentimental Mood
TTITLE5=They Can't Take That Away from Me
TTITLE6=Night in Tunisia
TTITLE7=The Man I Love
EXTD=YEAR: 2013
EXTT0=
EXTT1=
EXTT2=
EXTT3=
EXTT4=
EXTT5=
EXTT6=
EXTT7=
PLAYORDER=
